<svg width="224" height="116" viewBox="0 0 224 116" fill="none" xmlns="http://www.w3.org/2000/svg">
<path d="M73.8306 0C96.1972 -0.000194145 100.144 44.1098 109.354 44.1098C118.564 44.1098 127.774 6.4088e-10 147.509 0C157.512 0 177.903 28.9759 196.299 59.3892C206.938 76.9771 223.819 106.932 223.819 108.269C223.819 112.79 204.083 121.101 177.77 108.269C170.484 104.716 158.298 92.2293 148.825 70.8428C142.246 85.546 125.142 114.952 109.354 114.952C93.5659 114.952 78.2162 85.546 72.5149 70.8428C65.1471 89.0215 51.0254 103.368 44.8855 108.269C26.9922 121.101 0.152236 110.942 0.152192 108.269C-1.7119 106.932 13.9492 79.1516 25.1502 59.3892C41.7744 30.0583 62.0135 0.000102574 73.8306 0Z" fill="#5719CA"/>
<path d="M73.8306 0C96.1972 -0.000194145 100.144 44.1098 109.354 44.1098C118.564 44.1098 127.774 6.4088e-10 147.509 0C157.512 0 177.903 28.9759 196.299 59.3892C206.938 76.9771 223.819 106.932 223.819 108.269C223.819 112.79 204.083 121.101 177.77 108.269C170.484 104.716 158.298 92.2293 148.825 70.8428C142.246 85.546 125.142 114.952 109.354 114.952C93.5659 114.952 78.2162 85.546 72.5149 70.8428C65.1471 89.0215 51.0254 103.368 44.8855 108.269C26.9922 121.101 0.152236 110.942 0.152192 108.269C-1.7119 106.932 13.9492 79.1516 25.1502 59.3892C41.7744 30.0583 62.0135 0.000102574 73.8306 0Z" fill="url(#paint0_radial_136_24)" fill-opacity="0.3"/>
<defs>
<radialGradient id="paint0_radial_136_24" cx="0" cy="0" r="1" gradientUnits="userSpaceOnUse" gradientTransform="translate(104.091 68.1693) rotate(90.8676) scale(86.8925 168.482)">
<stop stop-color="#411F9D"/>
<stop offset="1" stop-color="#EDF67D"/>
</radialGradient>
</defs>
</svg>
