<svg width="87" height="26" viewBox="0 0 87 26" fill="none" xmlns="http://www.w3.org/2000/svg">
<path d="M1.2642 0.454545H5.05682L9.0625 10.2273H9.23295L13.2386 0.454545H17.0312V15H14.0483V5.53267H13.9276L10.1634 14.929H8.1321L4.3679 5.49716H4.24716V15H1.2642V0.454545ZM19.565 15V0.454545H29.3661V2.99006H22.6403V6.45597H28.8619V8.99148H22.6403V12.4645H29.3945V15H19.565ZM43.9773 0.454545V15H41.321L34.9929 5.84517H34.8864V15H31.8111V0.454545H34.5099L40.7884 9.60227H40.9162V0.454545H43.9773ZM45.9641 2.99006V0.454545H57.9102V2.99006H53.457V15H50.4173V2.99006H45.9641ZM68.8619 0.454545H71.9371V9.90057C71.9371 10.9612 71.6838 11.8892 71.1772 12.6847C70.6753 13.4801 69.9722 14.1004 69.0678 14.5455C68.1635 14.9858 67.11 15.206 65.9073 15.206C64.6999 15.206 63.6441 14.9858 62.7397 14.5455C61.8353 14.1004 61.1322 13.4801 60.6303 12.6847C60.1284 11.8892 59.8775 10.9612 59.8775 9.90057V0.454545H62.9528V9.63778C62.9528 10.1918 63.0735 10.6842 63.315 11.1151C63.5612 11.5459 63.9068 11.8845 64.3519 12.1307C64.797 12.3769 65.3155 12.5 65.9073 12.5C66.5039 12.5 67.0224 12.3769 67.4627 12.1307C67.9078 11.8845 68.2511 11.5459 68.4925 11.1151C68.7388 10.6842 68.8619 10.1918 68.8619 9.63778V0.454545ZM74.4673 15V0.454545H80.206C81.3092 0.454545 82.2491 0.665246 83.0256 1.08665C83.8021 1.50331 84.3939 2.08333 84.8011 2.8267C85.2131 3.56534 85.419 4.41761 85.419 5.38352C85.419 6.34943 85.2107 7.2017 84.794 7.94034C84.3774 8.67898 83.7737 9.25426 82.983 9.66619C82.197 10.0781 81.2453 10.2841 80.1278 10.2841H76.4702V7.8196H79.6307C80.2225 7.8196 80.7102 7.7178 81.0938 7.5142C81.482 7.30587 81.7708 7.01941 81.9602 6.65483C82.1544 6.28551 82.2514 5.86174 82.2514 5.38352C82.2514 4.90057 82.1544 4.47917 81.9602 4.11932C81.7708 3.75473 81.482 3.47301 81.0938 3.27415C80.7055 3.07055 80.2131 2.96875 79.6165 2.96875H77.5426V15H74.4673Z" fill="#F7F7F7"/>
<path d="M0.74858 18.8182H1.48509V23.6839H1.54545L4.92614 18.8182H5.65057V25H4.90199V20.1463H4.84162L1.47301 25H0.74858V18.8182ZM10.8793 18.8182V19.4822H7.89706V25H7.14848V18.8182H10.8793ZM12.0376 25V18.8182H14.1264C14.6114 18.8182 15.0078 18.9057 15.3157 19.0808C15.6256 19.2538 15.855 19.4883 16.0039 19.7841C16.1528 20.0799 16.2273 20.4099 16.2273 20.7741C16.2273 21.1384 16.1528 21.4694 16.0039 21.7672C15.857 22.065 15.6296 22.3025 15.3217 22.4796C15.0138 22.6547 14.6194 22.7422 14.1385 22.7422H12.6413V22.0781H14.1143C14.4464 22.0781 14.713 22.0208 14.9142 21.9061C15.1155 21.7914 15.2614 21.6364 15.3519 21.4412C15.4445 21.244 15.4908 21.0217 15.4908 20.7741C15.4908 20.5266 15.4445 20.3053 15.3519 20.1101C15.2614 19.9149 15.1145 19.762 14.9112 19.6513C14.708 19.5386 14.4383 19.4822 14.1023 19.4822H12.7862V25H12.0376ZM22.6491 21.9091C22.6491 22.5611 22.5313 23.1245 22.2959 23.5994C22.0605 24.0743 21.7375 24.4406 21.327 24.6982C20.9165 24.9557 20.4476 25.0845 19.9204 25.0845C19.3931 25.0845 18.9243 24.9557 18.5138 24.6982C18.1032 24.4406 17.7803 24.0743 17.5448 23.5994C17.3094 23.1245 17.1917 22.5611 17.1917 21.9091C17.1917 21.2571 17.3094 20.6937 17.5448 20.2188C17.7803 19.7438 18.1032 19.3776 18.5138 19.12C18.9243 18.8625 19.3931 18.7337 19.9204 18.7337C20.4476 18.7337 20.9165 18.8625 21.327 19.12C21.7375 19.3776 22.0605 19.7438 22.2959 20.2188C22.5313 20.6937 22.6491 21.2571 22.6491 21.9091ZM21.9246 21.9091C21.9246 21.3738 21.8351 20.9221 21.656 20.5538C21.4789 20.1855 21.2384 19.9068 20.9346 19.7177C20.6327 19.5285 20.2947 19.4339 19.9204 19.4339C19.5461 19.4339 19.207 19.5285 18.9031 19.7177C18.6013 19.9068 18.3608 20.1855 18.1817 20.5538C18.0046 20.9221 17.9161 21.3738 17.9161 21.9091C17.9161 22.4444 18.0046 22.8961 18.1817 23.2644C18.3608 23.6326 18.6013 23.9113 18.9031 24.1005C19.207 24.2897 19.5461 24.3842 19.9204 24.3842C20.2947 24.3842 20.6327 24.2897 20.9346 24.1005C21.2384 23.9113 21.4789 23.6326 21.656 23.2644C21.8351 22.8961 21.9246 22.4444 21.9246 21.9091ZM23.9078 25V18.8182H26.069C26.4996 18.8182 26.8548 18.8926 27.1345 19.0415C27.4142 19.1884 27.6225 19.3867 27.7593 19.6362C27.8962 19.8837 27.9646 20.1584 27.9646 20.4602C27.9646 20.7259 27.9173 20.9452 27.8227 21.1183C27.7301 21.2913 27.6074 21.4281 27.4545 21.5288C27.3035 21.6294 27.1395 21.7038 26.9624 21.7521V21.8125C27.1516 21.8246 27.3418 21.891 27.5329 22.0117C27.7241 22.1325 27.8841 22.3055 28.0129 22.5309C28.1417 22.7563 28.2061 23.032 28.2061 23.358C28.2061 23.6679 28.1356 23.9466 27.9948 24.1941C27.8539 24.4416 27.6315 24.6378 27.3277 24.7827C27.0238 24.9276 26.6284 25 26.1414 25H23.9078ZM24.6563 24.3359H26.1414C26.6304 24.3359 26.9775 24.2414 27.1828 24.0522C27.3901 23.861 27.4937 23.6296 27.4937 23.358C27.4937 23.1487 27.4404 22.9555 27.3337 22.7784C27.2271 22.5993 27.0751 22.4564 26.8779 22.3498C26.6807 22.2411 26.4473 22.1868 26.1776 22.1868H24.6563V24.3359ZM24.6563 21.5348H26.0448C26.2702 21.5348 26.4735 21.4905 26.6546 21.402C26.8377 21.3134 26.9826 21.1887 27.0892 21.0277C27.1979 20.8667 27.2522 20.6776 27.2522 20.4602C27.2522 20.1886 27.1576 19.9582 26.9685 19.769C26.7793 19.5778 26.4795 19.4822 26.069 19.4822H24.6563V21.5348ZM29.9915 21.4141H31.7543C32.197 21.4141 32.5703 21.4865 32.8741 21.6314C33.18 21.7763 33.4114 21.9805 33.5684 22.2441C33.7273 22.5078 33.8068 22.8187 33.8068 23.1768C33.8068 23.535 33.7273 23.851 33.5684 24.1246C33.4114 24.3983 33.18 24.6126 32.8741 24.7676C32.5703 24.9225 32.197 25 31.7543 25H29.4361V18.8182H30.1847V24.348H31.7543C32.036 24.348 32.2744 24.2917 32.4696 24.179C32.6668 24.0643 32.8158 23.9174 32.9164 23.7383C33.019 23.5572 33.0703 23.366 33.0703 23.1648C33.0703 22.869 32.9566 22.6144 32.7292 22.4011C32.5018 22.1858 32.1768 22.0781 31.7543 22.0781H29.9915V21.4141ZM35.1591 18.8182V25H34.4105V18.8182H35.1591ZM36.6578 25V18.8182H40.3886V19.4822H37.4063V21.571H40.1954V22.2351H37.4063V24.3359H40.4369V25H36.6578ZM44.1285 25V18.8182H44.877V21.571H48.1732V18.8182H48.9218V25H48.1732V22.2351H44.877V25H44.1285ZM55.6364 21.9091C55.6364 22.5611 55.5186 23.1245 55.2832 23.5994C55.0478 24.0743 54.7248 24.4406 54.3143 24.6982C53.9038 24.9557 53.4349 25.0845 52.9077 25.0845C52.3804 25.0845 51.9116 24.9557 51.5011 24.6982C51.0906 24.4406 50.7676 24.0743 50.5321 23.5994C50.2967 23.1245 50.179 22.5611 50.179 21.9091C50.179 21.2571 50.2967 20.6937 50.5321 20.2188C50.7676 19.7438 51.0906 19.3776 51.5011 19.12C51.9116 18.8625 52.3804 18.7337 52.9077 18.7337C53.4349 18.7337 53.9038 18.8625 54.3143 19.12C54.7248 19.3776 55.0478 19.7438 55.2832 20.2188C55.5186 20.6937 55.6364 21.2571 55.6364 21.9091ZM54.9119 21.9091C54.9119 21.3738 54.8224 20.9221 54.6433 20.5538C54.4662 20.1855 54.2257 19.9068 53.9219 19.7177C53.62 19.5285 53.282 19.4339 52.9077 19.4339C52.5334 19.4339 52.1943 19.5285 51.8904 19.7177C51.5886 19.9068 51.3481 20.1855 51.169 20.5538C50.992 20.9221 50.9034 21.3738 50.9034 21.9091C50.9034 22.4444 50.992 22.8961 51.169 23.2644C51.3481 23.6326 51.5886 23.9113 51.8904 24.1005C52.1943 24.2897 52.5334 24.3842 52.9077 24.3842C53.282 24.3842 53.62 24.2897 53.9219 24.1005C54.2257 23.9113 54.4662 23.6326 54.6433 23.2644C54.8224 22.8961 54.9119 22.4444 54.9119 21.9091ZM56.8951 25V18.8182H59.0563C59.4869 18.8182 59.8421 18.8926 60.1218 19.0415C60.4015 19.1884 60.6098 19.3867 60.7466 19.6362C60.8835 19.8837 60.9519 20.1584 60.9519 20.4602C60.9519 20.7259 60.9046 20.9452 60.81 21.1183C60.7174 21.2913 60.5947 21.4281 60.4418 21.5288C60.2908 21.6294 60.1268 21.7038 59.9498 21.7521V21.8125C60.1389 21.8246 60.3291 21.891 60.5202 22.0117C60.7114 22.1325 60.8714 22.3055 61.0002 22.5309C61.129 22.7563 61.1934 23.032 61.1934 23.358C61.1934 23.6679 61.1229 23.9466 60.9821 24.1941C60.8412 24.4416 60.6188 24.6378 60.315 24.7827C60.0111 24.9276 59.6157 25 59.1287 25H56.8951ZM57.6436 24.3359H59.1287C59.6177 24.3359 59.9648 24.2414 60.1701 24.0522C60.3774 23.861 60.481 23.6296 60.481 23.358C60.481 23.1487 60.4277 22.9555 60.321 22.7784C60.2144 22.5993 60.0624 22.4564 59.8652 22.3498C59.668 22.2411 59.4346 22.1868 59.165 22.1868H57.6436V24.3359ZM57.6436 21.5348H59.0321C59.2575 21.5348 59.4608 21.4905 59.6419 21.402C59.825 21.3134 59.9699 21.1887 60.0765 21.0277C60.1852 20.8667 60.2395 20.6776 60.2395 20.4602C60.2395 20.1886 60.1449 19.9582 59.9558 19.769C59.7666 19.5778 59.4668 19.4822 59.0563 19.4822H57.6436V21.5348ZM67.6393 21.9091C67.6393 22.5611 67.5216 23.1245 67.2861 23.5994C67.0507 24.0743 66.7277 24.4406 66.3172 24.6982C65.9067 24.9557 65.4378 25.0845 64.9106 25.0845C64.3834 25.0845 63.9145 24.9557 63.504 24.6982C63.0935 24.4406 62.7705 24.0743 62.5351 23.5994C62.2996 23.1245 62.1819 22.5611 62.1819 21.9091C62.1819 21.2571 62.2996 20.6937 62.5351 20.2188C62.7705 19.7438 63.0935 19.3776 63.504 19.12C63.9145 18.8625 64.3834 18.7337 64.9106 18.7337C65.4378 18.7337 65.9067 18.8625 66.3172 19.12C66.7277 19.3776 67.0507 19.7438 67.2861 20.2188C67.5216 20.6937 67.6393 21.2571 67.6393 21.9091ZM66.9149 21.9091C66.9149 21.3738 66.8253 20.9221 66.6462 20.5538C66.4691 20.1855 66.2287 19.9068 65.9248 19.7177C65.623 19.5285 65.2849 19.4339 64.9106 19.4339C64.5363 19.4339 64.1972 19.5285 63.8934 19.7177C63.5915 19.9068 63.3511 20.1855 63.172 20.5538C62.9949 20.9221 62.9063 21.3738 62.9063 21.9091C62.9063 22.4444 62.9949 22.8961 63.172 23.2644C63.3511 23.6326 63.5915 23.9113 63.8934 24.1005C64.1972 24.2897 64.5363 24.3842 64.9106 24.3842C65.2849 24.3842 65.623 24.2897 65.9248 24.1005C66.2287 23.9113 66.4691 23.6326 66.6462 23.2644C66.8253 22.8961 66.9149 22.4444 66.9149 21.9091ZM73.8724 20.75H73.1238C73.0796 20.5347 73.0021 20.3455 72.8914 20.1825C72.7828 20.0195 72.6499 19.8827 72.493 19.772C72.338 19.6593 72.166 19.5748 71.9768 19.5185C71.7877 19.4621 71.5905 19.4339 71.3852 19.4339C71.0109 19.4339 70.6718 19.5285 70.368 19.7177C70.0661 19.9068 69.8257 20.1855 69.6466 20.5538C69.4695 20.9221 69.3809 21.3738 69.3809 21.9091C69.3809 22.4444 69.4695 22.8961 69.6466 23.2644C69.8257 23.6326 70.0661 23.9113 70.368 24.1005C70.6718 24.2897 71.0109 24.3842 71.3852 24.3842C71.5905 24.3842 71.7877 24.3561 71.9768 24.2997C72.166 24.2434 72.338 24.1599 72.493 24.0492C72.6499 23.9365 72.7828 23.7987 72.8914 23.6357C73.0021 23.4706 73.0796 23.2815 73.1238 23.0682H73.8724C73.8161 23.3841 73.7135 23.6668 73.5645 23.9164C73.4156 24.1659 73.2305 24.3782 73.0091 24.5533C72.7878 24.7263 72.5393 24.8581 72.2636 24.9487C71.9899 25.0392 71.6971 25.0845 71.3852 25.0845C70.858 25.0845 70.3891 24.9557 69.9786 24.6982C69.5681 24.4406 69.2451 24.0743 69.0097 23.5994C68.7742 23.1245 68.6565 22.5611 68.6565 21.9091C68.6565 21.2571 68.7742 20.6937 69.0097 20.2188C69.2451 19.7438 69.5681 19.3776 69.9786 19.12C70.3891 18.8625 70.858 18.7337 71.3852 18.7337C71.6971 18.7337 71.9899 18.7789 72.2636 18.8695C72.5393 18.96 72.7878 19.0929 73.0091 19.2679C73.2305 19.441 73.4156 19.6523 73.5645 19.9018C73.7135 20.1493 73.8161 20.4321 73.8724 20.75ZM74.744 19.4822V18.8182H79.3804V19.4822H77.4365V25H76.6879V19.4822H74.744ZM80.5357 18.8182H81.2722V23.6839H81.3326L84.7132 18.8182H85.4377V25H84.6891V20.1463H84.6287L81.2601 25H80.5357V18.8182Z" fill="#F7F7F7"/>
</svg>
