<svg width="53" height="41" viewBox="0 0 53 41" fill="none" xmlns="http://www.w3.org/2000/svg">
<path d="M16.0957 31.1421H17.4331V40H14.9629L11.2341 31.7243H11.2027V40H9.86533V31.1421H12.1781L16.0643 39.4179H16.0957V31.1421ZM21.8974 40.1573C21.1737 40.1573 20.5811 40 20.1195 39.6853C19.658 39.3602 19.3171 38.9459 19.0969 38.4424C18.8766 37.9284 18.7665 37.3988 18.7665 36.8533C18.756 36.2345 18.8714 35.6733 19.1126 35.1699C19.3643 34.6664 19.721 34.2678 20.1825 33.9741C20.6545 33.6804 21.2156 33.5336 21.8659 33.5336C22.4323 33.5336 22.9358 33.6595 23.3763 33.9112C23.8169 34.1524 24.1683 34.4986 24.4305 34.9496C24.6927 35.3901 24.8343 35.9146 24.8553 36.5229C24.8658 36.5544 24.871 36.6173 24.871 36.7117C24.871 36.7956 24.871 36.8691 24.871 36.932H20.0094C20.0094 37.6033 20.172 38.1277 20.4971 38.5053C20.8328 38.8724 21.2943 39.056 21.8817 39.056C22.3222 39.056 22.6946 38.9459 22.9987 38.7256C23.3134 38.4948 23.5075 38.1907 23.5809 37.8131H24.8553C24.7923 38.2536 24.635 38.6522 24.3833 39.0088C24.1315 39.3654 23.7959 39.6486 23.3763 39.8584C22.9568 40.0577 22.4638 40.1573 21.8974 40.1573ZM20.0566 36.2869H23.5494C23.5389 36.1716 23.5075 36.0195 23.455 35.8307C23.4131 35.6419 23.3291 35.4583 23.2033 35.28C23.0774 35.0912 22.9043 34.9339 22.6841 34.808C22.4638 34.6821 22.1806 34.6192 21.8345 34.6192C21.5198 34.6192 21.2523 34.6716 21.0321 34.7765C20.8118 34.8814 20.6335 35.023 20.4971 35.2013C20.3608 35.3692 20.2559 35.5527 20.1825 35.752C20.1195 35.9408 20.0776 36.1191 20.0566 36.2869ZM27.2158 40L25.611 33.8011V33.5493H26.8854L28.144 38.8987H28.1755L29.6859 33.5493H30.8344L32.392 38.8987H32.4235L33.6664 33.5493H34.9408V33.8011L33.3203 40H31.4795L30.2838 35.8149H30.2523L29.0723 40H27.2158ZM38.5771 40.1573C38.2834 40.1573 37.995 40.1154 37.7118 40.0315C37.439 39.958 37.1821 39.8479 36.9408 39.7011C36.7101 39.5542 36.5003 39.3864 36.3115 39.1976C36.1332 39.0088 35.9916 38.8043 35.8867 38.584C35.7923 38.3532 35.7451 38.112 35.7451 37.8603H36.9723C36.9723 37.8708 36.9775 37.9442 36.988 38.0805C37.009 38.2169 37.0667 38.3742 37.1611 38.5525C37.2555 38.7204 37.4076 38.8672 37.6174 38.9931C37.8376 39.1189 38.147 39.1819 38.5456 39.1819C38.8498 39.1819 39.1068 39.1452 39.3166 39.0717C39.5368 38.9983 39.7046 38.8987 39.82 38.7728C39.9354 38.6364 39.9878 38.4739 39.9774 38.2851C39.9774 38.0228 39.8777 37.8183 39.6784 37.6715C39.4791 37.5246 39.2222 37.4092 38.9075 37.3253C38.5928 37.2309 38.2624 37.1418 37.9163 37.0579C37.5702 36.974 37.2398 36.8638 36.9251 36.7275C36.6104 36.5806 36.3534 36.3866 36.1542 36.1453C35.9654 35.8936 35.8762 35.558 35.8867 35.1384C35.8867 34.572 36.1227 34.1367 36.5947 33.8325C37.0772 33.5179 37.6855 33.3605 38.4198 33.3605C38.7764 33.3605 39.1225 33.4025 39.4582 33.4864C39.7938 33.5703 40.0927 33.7014 40.355 33.8797C40.6277 34.058 40.8427 34.294 41 34.5877C41.1678 34.8814 41.2465 35.2433 41.236 35.6733H40.0246C40.035 35.4006 39.9878 35.1804 39.883 35.0125C39.7886 34.8447 39.6574 34.7188 39.4896 34.6349C39.3218 34.5405 39.1435 34.4776 38.9547 34.4461C38.7764 34.4042 38.6033 34.3832 38.4355 34.3832C38.0159 34.3832 37.6855 34.4619 37.4443 34.6192C37.203 34.766 37.0824 34.9653 37.0824 35.2171C37.0824 35.4793 37.1821 35.6838 37.3814 35.8307C37.5806 35.9775 37.8376 36.0929 38.1523 36.1768C38.467 36.2607 38.8026 36.3446 39.1592 36.4285C39.5158 36.5124 39.8515 36.6278 40.1662 36.7747C40.4808 36.911 40.7378 37.1051 40.9371 37.3568C41.1364 37.6085 41.236 37.9442 41.236 38.3637C41.236 38.7728 41.1206 39.1084 40.8899 39.3707C40.6696 39.6329 40.3602 39.8322 39.9616 39.9685C39.563 40.0944 39.1015 40.1573 38.5771 40.1573Z" fill="#F7F7F7"/>
<path d="M17.3089 0.952148C22.5525 0.952105 23.4778 10.8942 25.637 10.8942C27.7961 10.8942 29.9553 0.952148 34.582 0.952148C36.9272 0.952148 41.7076 7.48309 46.0204 14.338C48.5145 18.3022 52.4721 25.0539 52.4721 25.3552C52.4721 26.3741 47.8454 28.2474 41.6764 25.3552C39.9683 24.5544 37.1113 21.7399 34.8905 16.9196C33.3482 20.2336 29.3384 26.8615 25.637 26.8615C21.9356 26.8615 18.337 20.2336 17.0004 16.9196C15.2731 21.0169 11.9624 24.2506 10.523 25.3552C6.32805 28.2475 0.0356903 25.9577 0.03568 25.3552C-0.401338 25.0539 3.27025 18.7923 5.89622 14.338C9.79361 7.72707 14.5385 0.952172 17.3089 0.952148Z" fill="#5719CA"/>
<path d="M17.3089 0.952148C22.5525 0.952105 23.4778 10.8942 25.637 10.8942C27.7961 10.8942 29.9553 0.952148 34.582 0.952148C36.9272 0.952148 41.7076 7.48309 46.0204 14.338C48.5145 18.3022 52.4721 25.0539 52.4721 25.3552C52.4721 26.3741 47.8454 28.2474 41.6764 25.3552C39.9683 24.5544 37.1113 21.7399 34.8905 16.9196C33.3482 20.2336 29.3384 26.8615 25.637 26.8615C21.9356 26.8615 18.337 20.2336 17.0004 16.9196C15.2731 21.0169 11.9624 24.2506 10.523 25.3552C6.32805 28.2475 0.0356903 25.9577 0.03568 25.3552C-0.401338 25.0539 3.27025 18.7923 5.89622 14.338C9.79361 7.72707 14.5385 0.952172 17.3089 0.952148Z" fill="url(#paint0_radial_131_809)" fill-opacity="0.3"/>
<path fill-rule="evenodd" clip-rule="evenodd" d="M17.3083 0.952148C20.5024 0.952122 22.0942 4.64099 23.3386 7.52474C24.1371 9.37521 24.7925 11.0108 25.6365 11.0108C26.5128 11.0108 27.3891 9.25641 28.4304 7.31035C29.9548 4.4616 31.8635 0.952148 34.5815 0.952148C38.093 0.952148 41.7071 7.48308 46.0199 14.338C39.6247 8.65752 35.9353 13.6922 34.89 16.9196C33.3477 20.2336 29.3379 26.8615 25.6365 26.8615C21.9351 26.8615 18.3365 20.2336 16.9999 16.9196C12.805 8.72504 7.84921 11.7841 5.8957 14.338C9.79308 7.72707 14.5379 0.952172 17.3083 0.952148Z" fill="#8142F6"/>
<path fill-rule="evenodd" clip-rule="evenodd" d="M17.3083 0.952148C20.5024 0.952122 22.0942 4.64099 23.3386 7.52474C24.1371 9.37521 24.7925 11.0108 25.6365 11.0108C26.5128 11.0108 27.3891 9.25641 28.4304 7.31035C29.9548 4.4616 31.8635 0.952148 34.5815 0.952148C38.093 0.952148 41.7071 7.48308 46.0199 14.338C39.6247 8.65752 35.9353 13.6922 34.89 16.9196C33.3477 20.2336 29.3379 26.8615 25.6365 26.8615C21.9351 26.8615 18.3365 20.2336 16.9999 16.9196C12.805 8.72504 7.84921 11.7841 5.8957 14.338C9.79308 7.72707 14.5379 0.952172 17.3083 0.952148Z" fill="url(#paint1_radial_131_809)" fill-opacity="0.3"/>
<defs>
<radialGradient id="paint0_radial_131_809" cx="0" cy="0" r="1" gradientUnits="userSpaceOnUse" gradientTransform="translate(24.4032 16.317) rotate(90.9024) scale(19.5851 39.4985)">
<stop stop-color="#411F9D"/>
<stop offset="1" stop-color="#EDF67D"/>
</radialGradient>
<radialGradient id="paint1_radial_131_809" cx="0" cy="0" r="1" gradientUnits="userSpaceOnUse" gradientTransform="translate(25.328 0.952149) rotate(87.9617) scale(26.0165 52.4666)">
<stop stop-color="#EDF67D"/>
<stop offset="1" stop-color="#EDF67D" stop-opacity="0"/>
</radialGradient>
</defs>
</svg>
