<svg width="40" height="40" viewBox="0 0 40 40" fill="none" xmlns="http://www.w3.org/2000/svg">
<g filter="url(#filter0_i_195_1154)">
<rect width="40" height="40" rx="15" fill="#312E39"/>
<rect x="1" y="1" width="38" height="38" rx="14" stroke="white" stroke-opacity="0.1" stroke-width="2"/>
<path fill-rule="evenodd" clip-rule="evenodd" d="M20.6528 11C20.4942 11 20.3421 11.0629 20.2299 11.175C20.1177 11.287 20.0545 11.4389 20.0541 11.5975C20.0541 11.5975 20.0476 14.5162 20.0413 17.4416C20.0396 18.2023 20.0378 18.9634 20.0361 19.6739C20.0345 20.3295 20.033 20.9419 20.0319 21.471C20.0296 22.5734 20.0284 23.2709 20.0284 23.329C20.0284 24.4157 19.0414 25.3039 17.9167 25.3039C16.8009 25.3039 15.9102 24.412 15.9102 23.2962C15.9102 22.1804 16.8009 21.2897 17.9167 21.2897C17.9416 21.2897 17.9834 21.2951 18.0464 21.3033C18.0788 21.3075 18.1168 21.3125 18.1611 21.3178C18.2452 21.3279 18.3304 21.32 18.4113 21.2947C18.4921 21.2694 18.5666 21.2272 18.63 21.1709C18.6933 21.1147 18.7439 21.0456 18.7786 20.9684C18.8133 20.8911 18.8312 20.8073 18.8311 20.7226V18.2075C18.831 18.0552 18.773 17.9086 18.6687 17.7976C18.5644 17.6866 18.4218 17.6195 18.2698 17.61C18.2483 17.6086 18.2255 17.607 18.2014 17.6052C18.121 17.5993 18.0262 17.5924 17.9167 17.5924C14.7739 17.5924 12.2129 20.1535 12.2129 23.2962C12.2129 26.439 14.7739 29 17.9167 29C21.0593 29 23.6205 26.439 23.6205 23.2962V17.8789C24.4913 18.5754 25.5766 19.0166 26.7752 19.0166C26.9387 19.0166 27.0941 19.0069 27.2429 18.9932C27.3916 18.9795 27.5297 18.9108 27.6303 18.8004C27.7309 18.6901 27.7867 18.5462 27.7866 18.3969V15.6011C27.7867 15.4498 27.7295 15.304 27.6264 15.1932C27.5234 15.0823 27.3822 15.0146 27.2312 15.0036C25.3486 14.8686 23.8479 13.402 23.652 11.5367C23.6367 11.3895 23.5674 11.2532 23.4575 11.1541C23.3476 11.055 23.2049 11.0001 23.0569 11H20.6528ZM22.616 12.1973H21.2503C21.25 12.3478 21.2493 12.6386 21.2484 13.0416C21.2484 13.0434 21.2484 13.0452 21.2484 13.047C21.2462 14.0065 21.2426 15.5982 21.2386 17.4439C21.237 18.1995 21.2352 18.9556 21.2335 19.6619C21.2335 19.6654 21.2335 19.6689 21.2334 19.6724C21.2319 20.3294 21.2304 20.9432 21.2293 21.4733C21.2274 22.3308 21.2263 22.9947 21.2259 23.2336L21.2259 23.2367C21.2258 23.3029 21.2258 23.3354 21.2258 23.329C21.2258 25.1206 19.6703 26.5012 17.9167 26.5012C16.154 26.5012 14.7128 25.0588 14.7128 23.2962C14.7128 21.6338 16.0092 20.3008 17.6337 20.1497V18.8471C15.2786 19.0002 13.4102 20.9012 13.4102 23.2962C13.4102 25.7918 15.4211 27.8027 17.9167 27.8027C20.4123 27.8027 22.4231 25.7918 22.4231 23.2962V16.3904C22.4229 16.2615 22.4643 16.1359 22.5412 16.0324C22.6181 15.9289 22.7263 15.853 22.8498 15.816C22.9733 15.7789 23.1054 15.7827 23.2266 15.8268C23.3478 15.8709 23.4514 15.9529 23.5222 16.0607C24.1841 17.0675 25.3088 17.7063 26.5893 17.7713V16.056C24.5943 15.6783 23.0511 14.1722 22.616 12.1973Z" fill="white"/>
<path d="M21.2503 12.1973H22.616C23.0511 14.1722 24.5943 15.6783 26.5893 16.056V17.7713C25.3088 17.7063 24.1841 17.0675 23.5222 16.0607C23.4514 15.9529 23.3478 15.8709 23.2266 15.8268C23.1054 15.7827 22.9733 15.7789 22.8498 15.816C22.7263 15.853 22.6181 15.9289 22.5412 16.0324C22.4643 16.1359 22.4229 16.2615 22.4231 16.3904V23.2962C22.4231 25.7918 20.4123 27.8027 17.9167 27.8027C15.4211 27.8027 13.4102 25.7918 13.4102 23.2962C13.4102 20.9012 15.2786 19.0002 17.6337 18.8471V20.1497C16.0092 20.3008 14.7128 21.6338 14.7128 23.2962C14.7128 25.0588 16.154 26.5012 17.9167 26.5012C19.6703 26.5012 21.2258 25.1206 21.2258 23.329C21.2258 23.3354 21.2258 23.3029 21.2259 23.2367L21.2259 23.2336C21.2263 22.9947 21.2274 22.3308 21.2293 21.4733L21.2334 19.6724L21.2335 19.6619C21.2352 18.9556 21.237 18.1995 21.2386 17.4439C21.2426 15.5982 21.2462 14.0065 21.2484 13.047L21.2484 13.0416L21.2503 12.1973Z" fill="white"/>
</g>
<defs>
<filter id="filter0_i_195_1154" x="0" y="0" width="40" height="44" filterUnits="userSpaceOnUse" color-interpolation-filters="sRGB">
<feFlood flood-opacity="0" result="BackgroundImageFix"/>
<feBlend mode="normal" in="SourceGraphic" in2="BackgroundImageFix" result="shape"/>
<feColorMatrix in="SourceAlpha" type="matrix" values="0 0 0 0 0 0 0 0 0 0 0 0 0 0 0 0 0 0 127 0" result="hardAlpha"/>
<feOffset dy="4"/>
<feGaussianBlur stdDeviation="7"/>
<feComposite in2="hardAlpha" operator="arithmetic" k2="-1" k3="1"/>
<feColorMatrix type="matrix" values="0 0 0 0 1 0 0 0 0 1 0 0 0 0 1 0 0 0 0.05 0"/>
<feBlend mode="normal" in2="shape" result="effect1_innerShadow_195_1154"/>
</filter>
</defs>
</svg>
